<svg height="24" viewBox="0 0 24 24" width="24" xmlns="http://www.w3.org/2000/svg"><path d="m10.9745053 6.25438069c.5859618.64953263.4001764 1.385384-.1179275 2.08359126-.1228372.16553787-.2644257.32864255-.4354337.50837031-.0820816.08626692-.146085.15114518-.2799611.28515282-.30404185.30434075-.55962787.56006764-.76677212.76719476-.10045042.10044211.58537169 1.47091256 1.91636572 2.80321496 1.330271 1.3315785 2.7006665 2.0178717 2.8015897 1.9168928l.7662433-.7666656c.4219641-.4223788.6454259-.6261656.9524941-.8276199.6383619-.4188019 1.3346487-.5326098 1.9218938-.0075046 1.917392 1.3715279 3.002421 2.2131696 3.5339823 2.7654875 1.0368032 1.0772885.9009239 2.7355505.0058881 3.6815575-.310367.328042-.7038975.7217894-1.1686927 1.1698678-2.8115426 2.8130924-8.7452087 1.1011478-13.29272087-3.4508344-4.54854328-4.5530143-6.25957423-10.48724751-3.45392351-13.29440469.50369491-.51161078.66976776-.67759921 1.16032384-1.1609619.91332516-.89993238 2.64809496-1.04084325 3.70265375.00089019.55470178.54795559 1.43904335 1.68579325 2.75399689 3.52577119zm5.2976912 9.01181231-.7663957.7668182c-1.3027098 1.3034278-3.5212556.1923815-5.6287635-1.917198-2.10895367-2.1110266-3.21876196-4.32874376-1.91561294-5.63178499.20686559-.20684849.46221007-.46233371.76601933-.76644159.12257971-.1227002.17865083-.17953772.24595284-.25027148.09169673-.09637236.16704687-.18101436.22737622-.25591314-1.16536776-1.62334105-1.95756624-2.63769308-2.38463315-3.05956608-.22055435-.21787201-.7144149-.17775699-.8957207.00089018-.48355249.4764618-.64249468.63532319-1.14415849 1.14483065-1.80431291 1.80530743-.42305033 6.59583115 3.44893327 10.47162075 3.87077012 3.8745749 8.66057222 5.2564989 10.47861602 3.4376906.4575653-.4413383.8304305-.814409 1.1174257-1.1177481.2073819-.2191921.2444429-.6714816.0058881-.9193516-.3973347-.4128499-1.370103-1.1713041-3.0497615-2.3775058-.1224316.0985451-.2729386.2414754-.5051655.4739304z" fill-rule="evenodd"/></svg>